<svg xmlns="http://www.w3.org/2000/svg" version="1.1" xmlns:xlink="http://www.w3.org/1999/xlink" xmlns:svgjs="http://svgjs.dev/svgjs" viewBox="0 0 1920 1080" style="overflow: hidden; height: 85vh;" class="overflow-hidden rounded-md drop-shadow-lg transition duration-300"><rect width="1920" height="1080" fill="#22194d"/><g clip-path="url(&quot;#SvgjsClipPath2270&quot;)"><g transform="matrix(-0.48601100100180417,1.0422539550921475,-1.0422539550921475,-0.48601100100180417,1918.3801634561248,-148.31480487152226)"><path d="M0,-1080C-15.927675899056217,-1005.8217295455946,-96.01598883987361,-828.4385989531077,-95.5660553943373,-634.9303772735675C-95.11612194880098,-441.42215559402734,-28.924285720952458,-121.00473916332209,2.699600673217901,81.049330077241C34.32348706738826,283.1033993178041,82.28479165006642,425.71017568980017,94.17726297068486,577.394038169811C106.0697342913033,729.0779006498218,102.10001019143658,800.0642729679778,74.05442859692857,991.152504957306C46.008847002420566,1182.2407369466341,-61.753821830208416,1529.1155142653308,-74.09622659636318,1723.9234301057797C-86.43863136251794,1918.7313459462287,-12.349371099393863,2087.3205716842967,0,2160L 1920 2160 L 1920 -1080 Z" fill="url(&quot;#SvgjsLinearGradient2266&quot;)"/><path d="M480,-1080C501.05178000807484,-972.5530305230692,607.0299794978484,-670.0554723968363,606.3106800484491,-435.31818313841495C605.5913805990497,-200.58089387999357,513.173424369899,108.10389755902321,475.68420330360397,328.4237355505284C438.194982237309,548.7435735420336,368.5029054890973,690.3490077122875,381.3753536506791,886.6008448106162C394.24780181226083,1082.8526819089448,536.4814512148744,1293.7015656089366,552.9188922730946,1505.9347581405004C569.3563333313148,1718.1679506720643,492.15314871218243,2050.98912635675,480,2160L 1920 2160 L 1920 -1080 Z" fill="url(&quot;#SvgjsLinearGradient2267&quot;)"/><path d="M960,-1080C948.3791423431921,-973.7667978905172,887.9561958108461,-673.6509996222289,890.2748540591529,-442.60078734310326C892.5935123074596,-211.55057506397762,965.9411862281449,82.37322049135247,973.9119494898406,306.301273674754C981.8827127515362,530.2293268581554,919.7422282365899,717.8284419524364,938.0994336293268,900.9675317573058C956.4566390220637,1084.1066215621752,1080.4050874511495,1195.297067796855,1084.0551818462616,1405.1358125039706C1087.7052762413737,1614.9745572110862,980.6758636410436,2034.189302083995,960,2160L 1920 2160 L 1920 -1080 Z" fill="url(&quot;#SvgjsLinearGradient2268&quot;)"/><path d="M1440,-1080C1455.5924838148285,-1018.1006464380163,1543.084302764106,-866.4164685576752,1533.5549028889716,-708.6038786280974C1524.0255030138371,-550.7912886985196,1416.3783049197355,-312.1254354185468,1382.8236007491932,-133.12446042253305C1349.268896578651,45.87651457348068,1338.9151597819089,213.8434951766281,1332.226677865719,365.401971347985C1325.5381959495292,516.9604475193419,1304.072889098309,632.2477003618558,1342.692709252054,776.2263966056084C1381.3125294057993,920.2050928493611,1534.2885877698814,1056.1532180640886,1563.9455987881902,1229.274148810501C1593.602609806499,1402.3950795569133,1541.2923751599383,1659.831005885833,1520.6347753619066,1814.951981084083C1499.9771755638749,1970.0729562823328,1453.4391292269845,2102.4919968473473,1440,2160L 1920 2160 L 1920 -1080 Z" fill="url(&quot;#SvgjsLinearGradient2269&quot;)"/></g></g><defs><linearGradient x1="0.1" y1="0" x2="0" y2="1" id="SvgjsLinearGradient2266"><stop stop-color="#22194d" offset="0"/><stop stop-color="#19194d" offset="0"/></linearGradient><linearGradient x1="0.1" y1="0" x2="0" y2="1" id="SvgjsLinearGradient2267"><stop stop-color="#4734a1" offset="0"/><stop stop-color="#3534a1" offset="0.25"/></linearGradient><linearGradient x1="0.1" y1="0" x2="0" y2="1" id="SvgjsLinearGradient2268"><stop stop-color="#8372d1" offset="0"/><stop stop-color="#7372d1" offset="0.5"/></linearGradient><linearGradient x1="0.1" y1="0" x2="0" y2="1" id="SvgjsLinearGradient2269"><stop stop-color="#ccc6ec" offset="0"/><stop stop-color="#c6c6ec" offset="0.75"/></linearGradient><clipPath id="SvgjsClipPath2270"><rect width="1920" height="1080"/></clipPath></defs></svg>